<mxfile host="Electron" agent="Mozilla/5.0 (Windows NT 10.0; Win64; x64) AppleWebKit/537.36 (KHTML, like Gecko) draw.io/25.0.2 Chrome/128.0.6613.186 Electron/32.2.5 Safari/537.36" version="25.0.2">
  <diagram name="Page-1" id="1yNcBlxzZXYbxJGngcS0">
    <mxGraphModel dx="578" dy="373" grid="1" gridSize="10" guides="1" tooltips="1" connect="1" arrows="1" fold="1" page="1" pageScale="1" pageWidth="850" pageHeight="1100" math="0" shadow="0">
      <root>
        <mxCell id="0" />
        <mxCell id="1" parent="0" />
        <mxCell id="_j4tcf1Lxn-nTsuZ9A-B-1" value="Symboles" style="swimlane;whiteSpace=wrap;html=1;fillColor=none;" vertex="1" parent="1">
          <mxGeometry x="160" y="141" width="530" height="360" as="geometry" />
        </mxCell>
        <mxCell id="_j4tcf1Lxn-nTsuZ9A-B-3" value="&lt;b&gt;Rounded Rectangle &lt;/b&gt;represent &lt;b&gt;a state&lt;/b&gt; and labeled with its name" style="text;html=1;align=left;verticalAlign=top;whiteSpace=wrap;rounded=0;" vertex="1" parent="_j4tcf1Lxn-nTsuZ9A-B-1">
          <mxGeometry x="21" y="185" width="239" height="35" as="geometry" />
        </mxCell>
        <mxCell id="_j4tcf1Lxn-nTsuZ9A-B-6" value="A &lt;strong&gt;solid line arrow&lt;/strong&gt; connecting between states represents a &lt;strong&gt;transition&lt;/strong&gt; between states, labeled with an &lt;strong&gt;event name&lt;/strong&gt; (event) that triggers the transition and may include a &lt;strong&gt;condition&lt;/strong&gt; within square brackets &lt;font face=&quot;monospace&quot;&gt;[ ]&lt;/font&gt;, specifying when the transition occurs." style="text;html=1;align=left;verticalAlign=middle;whiteSpace=wrap;rounded=0;" vertex="1" parent="_j4tcf1Lxn-nTsuZ9A-B-1">
          <mxGeometry x="20" y="261" width="300" height="70" as="geometry" />
        </mxCell>
        <mxCell id="_j4tcf1Lxn-nTsuZ9A-B-7" value="&lt;b&gt;Filled&amp;nbsp;&lt;/b&gt;&lt;b style=&quot;background-color: initial;&quot;&gt;circle&amp;nbsp;&lt;/b&gt;&lt;span style=&quot;background-color: initial;&quot;&gt;represent &lt;b&gt;the initial state&lt;/b&gt; labeled with its name&lt;/span&gt;" style="text;html=1;align=left;verticalAlign=top;whiteSpace=wrap;rounded=0;" vertex="1" parent="_j4tcf1Lxn-nTsuZ9A-B-1">
          <mxGeometry x="20" y="40" width="250" height="40" as="geometry" />
        </mxCell>
        <mxCell id="_j4tcf1Lxn-nTsuZ9A-B-8" value="&lt;b&gt;A&amp;nbsp;&lt;/b&gt;&lt;b style=&quot;background-color: initial;&quot;&gt;circle with smaller circle inside&amp;nbsp;&lt;/b&gt;&lt;span style=&quot;background-color: initial;&quot;&gt;represent &lt;b&gt;the final state&lt;/b&gt; labeled with its name&amp;nbsp;&lt;/span&gt;" style="text;html=1;align=left;verticalAlign=top;whiteSpace=wrap;rounded=0;" vertex="1" parent="_j4tcf1Lxn-nTsuZ9A-B-1">
          <mxGeometry x="20" y="99" width="250" height="41" as="geometry" />
        </mxCell>
        <mxCell id="_j4tcf1Lxn-nTsuZ9A-B-11" value="" style="ellipse;html=1;shape=endState;fillColor=#000000;strokeColor=#0008ff;perimeterSpacing=18;strokeWidth=1;" vertex="1" parent="_j4tcf1Lxn-nTsuZ9A-B-1">
          <mxGeometry x="412" y="101" width="23" height="22" as="geometry" />
        </mxCell>
        <mxCell id="_j4tcf1Lxn-nTsuZ9A-B-14" value="State Name" style="rounded=1;whiteSpace=wrap;html=1;fillColor=none;" vertex="1" parent="_j4tcf1Lxn-nTsuZ9A-B-1">
          <mxGeometry x="370" y="177.5" width="120" height="50" as="geometry" />
        </mxCell>
        <mxCell id="_j4tcf1Lxn-nTsuZ9A-B-15" value="" style="endArrow=open;endFill=1;endSize=12;html=1;rounded=0;" edge="1" parent="_j4tcf1Lxn-nTsuZ9A-B-1">
          <mxGeometry width="160" relative="1" as="geometry">
            <mxPoint x="370" y="300" as="sourcePoint" />
            <mxPoint x="500" y="300" as="targetPoint" />
          </mxGeometry>
        </mxCell>
        <mxCell id="_j4tcf1Lxn-nTsuZ9A-B-17" value="eventName [condition]" style="text;html=1;align=center;verticalAlign=middle;whiteSpace=wrap;rounded=0;" vertex="1" parent="_j4tcf1Lxn-nTsuZ9A-B-1">
          <mxGeometry x="365" y="273" width="130" height="18" as="geometry" />
        </mxCell>
        <mxCell id="_j4tcf1Lxn-nTsuZ9A-B-19" value="&lt;font style=&quot;font-size: 10px;&quot;&gt;state Name&lt;/font&gt;" style="text;html=1;align=center;verticalAlign=middle;whiteSpace=wrap;rounded=0;" vertex="1" parent="_j4tcf1Lxn-nTsuZ9A-B-1">
          <mxGeometry x="393" y="122" width="60" height="20" as="geometry" />
        </mxCell>
        <mxCell id="_j4tcf1Lxn-nTsuZ9A-B-21" value="" style="ellipse;whiteSpace=wrap;html=1;aspect=fixed;fillColor=#000000;" vertex="1" parent="_j4tcf1Lxn-nTsuZ9A-B-1">
          <mxGeometry x="412.5" y="49" width="22" height="22" as="geometry" />
        </mxCell>
        <mxCell id="_j4tcf1Lxn-nTsuZ9A-B-22" value="&lt;font style=&quot;font-size: 10px;&quot;&gt;state Name&lt;/font&gt;" style="text;html=1;align=center;verticalAlign=middle;whiteSpace=wrap;rounded=0;" vertex="1" parent="1">
          <mxGeometry x="554" y="209" width="60" height="20" as="geometry" />
        </mxCell>
      </root>
    </mxGraphModel>
  </diagram>
</mxfile>
